<?xml version="1.0" standalone="no"?>
<!DOCTYPE svg PUBLIC "-//W3C//DTD SVG 20010904//EN"
 "http://www.w3.org/TR/2001/REC-SVG-20010904/DTD/svg10.dtd">
<svg version="1.0" xmlns="http://www.w3.org/2000/svg"
 width="912.000000pt" height="912.000000pt" viewBox="0 0 912.000000 912.000000"
 preserveAspectRatio="xMidYMid meet">
<metadata>
Created by potrace 1.11, written by Peter Selinger 2001-2013
</metadata>
<g transform="translate(0.000000,912.000000) scale(0.100000,-0.100000)"
fill="#000000" stroke="none">
<path d="M9 9067 c-4 -277 0 -9048 4 -9055 4 -6 1653 -9 4552 -9 l4545 0 0
4553 0 4553 -4550 0 -4550 0 -1 -42z m8851 -4513 l0 -4302 -4303 0 -4302 0 0
4302 0 4303 4302 0 4303 0 0 -4303z"/>
<path d="M3562 6276 c-4 -8 -7 -205 -3 -238 1 -4 709 -7 1575 -7 l1574 1 1
124 c0 122 0 124 -22 125 -178 7 -3120 2 -3125 -5z"/>
<path d="M2585 4785 l0 -795 107 0 108 0 0 682 0 682 61 -105 c57 -98 120
-205 139 -239 5 -8 140 -241 301 -517 l292 -503 123 0 124 0 0 795 0 795 -105
0 -105 0 0 -632 0 -633 -78 133 c-42 73 -85 148 -95 165 -11 18 -92 158 -182
312 -89 154 -173 298 -186 321 -13 23 -62 107 -109 187 l-85 147 -155 0 -155
0 0 -795z"/>
<path d="M4199 5578 c-1 -2 -2 -360 -3 -795 l-1 -793 112 0 113 0 0 365 0 365
390 0 390 0 0 -365 0 -365 113 0 112 0 0 795 0 795 -112 0 -113 0 0 -325 0
-325 -32 0 c-60 -1 -723 -1 -735 -1 -10 1 -13 73 -13 326 l0 325 -110 0 c-60
0 -111 -1 -111 -2z"/>
<path d="M6289 4963 c0 -340 -3 -631 -5 -648 -6 -37 -40 -105 -62 -122 -87
-69 -212 -73 -280 -10 -41 38 -55 77 -60 174 l-5 92 -103 -1 -104 -1 -1 -26
c0 -14 0 -61 0 -104 3 -164 82 -283 231 -341 59 -24 190 -32 273 -17 164 29
255 103 316 258 l26 68 3 648 3 647 -115 0 -116 0 -1 -617z"/>
<path d="M2410 3515 l0 -125 1575 0 1575 0 0 125 0 125 -1575 0 -1575 0 0
-125z"/>
<path d="M3559 3061 c-4 -56 -1 -223 4 -227 4 -4 2865 -8 3115 -4 l32 0 0 123
0 124 -1575 0 c-1435 0 -1575 -1 -1576 -16z"/>
</g>
</svg>
